<svg xmlns="http://www.w3.org/2000/svg" xmlns:xlink="http://www.w3.org/1999/xlink" viewBox="0 0 234 398"><defs><style>.a,.t{fill:none;}.b,.g{fill:#c6dd7f;}.b,.c,.d{mix-blend-mode:multiply;}.c,.e{fill:#e9ddb7;}.d,.f{fill:#a6d0e4;}.h,.l{fill:#96281b;}.i{opacity:0.65;fill:url(#a);}.j{fill:#fbb03b;}.k,.p{fill:#fff;}.l{font-size:36px;}.l,.u,.v{font-family:JosefinSlab-Bold, Josefin Slab;font-weight:700;}.m,.u{font-size:20px;}.m{font-family:MaturaMTScriptCapitals, Matura MT Script Capitals;}.n,.s,.v,.w{font-size:15px;}.n{font-family:JosefinSlab-Light, Josefin Slab;}.o{fill:#f8a13b;}.p{font-size:25px;}.p,.w{font-family:AbrilFatface-Regular, Abril Fatface;}.q{letter-spacing:-0.03em;}.r{letter-spacing:-0.03em;}.s{font-family:JosefinSlab-Regular, Josefin Slab;}.t{stroke:#fff;stroke-miterlimit:10;stroke-width:3px;}.u{fill:#333;}.w{letter-spacing:0.04em;}.x{letter-spacing:0.03em;}.y{letter-spacing:0.04em;}</style><pattern id="a" width="144.1" height="138.36" patternTransform="translate(-121 51.9) scale(1 0.96)" patternUnits="userSpaceOnUse" viewBox="0 0 144.1 138.4"><rect class="a" width="144.1" height="138.36"/><path class="b" d="M211.1,158.5c-11.8-1.4-19.4.3-22.7,3.1s-5,5.4-2.2,11.9,1.5,14.7-5.5,15.9-10.9-4.8-11.2-12.3c-.2-5.2-1.9-8.3-5.5-7.6s-4.6,5.9-3.6,11.8c1.4,8.1,5.5,11.8,6.2,20.2.5,6.1-2.9,13.7-12.5,15s-15.9-4.3-16.6-10.5,3.6-10.9,3.1-17.6-4-10.2-5.9-17.3c-2.8-10.5,1.2-19,7.8-22.7,14.7-8.1,22.8,3.6,36,1.6,10.9-1.7,23.3-18.2,33-19.5s13.8,4.7,15,14S221.7,159.8,211.1,158.5Zm-42.2.5a4.2,4.2,0,1,0-4.2,4.2A4.2,4.2,0,0,0,168.9,159Zm49.5-15.4a1.7,1.7,0,1,0-1.7,1.7A1.7,1.7,0,0,0,218.3,143.6Z"/><path class="c" d="M48.8,139.3c0,7.2,4.6,13.8-1,16.3-8.5,3.8-28-14.3-28-36.2,0-12,8.7-19,17.8-19,12.3,0,18,8.2,18,17.5S48.8,131.1,48.8,139.3ZM43.4,134a2.1,2.1,0,1,0-2.1,2.1A2.1,2.1,0,0,0,43.4,134Z"/><path class="d" d="M123.5,162.8c-7.9,2.7-19.4-15.3-17.7-27,1.2-8.2,7.1-13.2,13.1-14.2,7.5-1.3,12.9,2.6,13.3,7.2.5,6.3-3.6,7.5-4.2,15S131.7,160,123.5,162.8Zm-3.8-27.5a2.6,2.6,0,1,0-2.6,2.6A2.6,2.6,0,0,0,119.7,135.3Z"/><circle class="c" cx="16.8" cy="140.4" r="2.6"/><path class="d" d="M84.6,132.6c.7,8.1,12.7,7,17.9,14.2,10.5,14.5-1.2,46.4-21.6,46.4-11.7,0-24.2-9.7-24.2-29.2,0-15.8,10.2-21.5,8.2-42.2-1-10.8-12.5-20.3-12.5-34.7,0-5.9,3.6-13.4,11.6-13.4s10.8,6,10.8,12.9-5.4,15.7,1.4,19c5.2,2.6,13.2-4.8,19.5-6.7s12.4.2,14.7,8.5-3.3,14.7-11.6,16.7C92.5,125.5,84,126.2,84.6,132.6Zm-16-30.6a3.3,3.3,0,1,0-3.3,3.3A3.3,3.3,0,0,0,68.6,102.1Zm26,9.7a2.3,2.3,0,1,0-2.3-2.3A2.3,2.3,0,0,0,94.6,111.8Zm-20,59.7a3.3,3.3,0,1,0-3.3,3.3A3.3,3.3,0,0,0,74.6,171.4Z"/><path class="b" d="M66.9,158.5c-11.8-1.4-19.4.3-22.7,3.1s-5,5.4-2.2,11.9,1.5,14.7-5.5,15.9-10.9-4.8-11.2-12.3c-.2-5.2-1.9-8.3-5.5-7.6s-4.6,5.9-3.6,11.8c1.4,8.1,5.5,11.8,6.2,20.2.5,6.1-2.9,13.7-12.5,15S-6,212.3-6.7,206.1s3.6-10.9,3.1-17.6-4-10.2-5.9-17.3c-2.8-10.5,1.2-19,7.8-22.7,14.7-8.1,22.8,3.6,36,1.6,10.9-1.7,23.3-18.2,33-19.5s13.8,4.7,15,14S77.6,159.8,66.9,158.5Zm-42.2.5a4.2,4.2,0,1,0-4.1,4.2A4.2,4.2,0,0,0,24.7,159Zm49.5-15.4a1.7,1.7,0,1,0-1.7,1.7A1.7,1.7,0,0,0,74.2,143.6Z"/><path class="d" d="M190.3,112c0,6.2-4.2,10.7-8.6,11.6s-8.3-1.3-13,1.2-7.1,11.1-16.8,11.1c-8,0-15.2-8-15.2-18.8,0-20.2,13.1-29.2,25.6-29.2C178.9,87.8,190.3,100.4,190.3,112ZM170.6,97.6a3.8,3.8,0,1,0-3.8,3.8A3.8,3.8,0,0,0,170.6,97.6Z"/><path class="b" d="M211.1,20.2c-11.8-1.4-19.4.3-22.7,3.1s-5,5.4-2.2,11.9,1.5,14.7-5.5,15.9-10.9-4.8-11.2-12.3c-.2-5.2-1.9-8.3-5.5-7.6s-4.6,5.9-3.6,11.8c1.4,8.1,5.5,11.8,6.2,20.2.5,6.1-2.9,13.7-12.5,15s-15.9-4.3-16.6-10.5,3.6-10.9,3.1-17.6-4-10.2-5.9-17.3c-2.8-10.5,1.2-19,7.8-22.7,14.7-8.1,22.8,3.6,36,1.6,10.9-1.7,23.3-18.2,33-19.5s13.8,4.7,15,14S221.7,21.4,211.1,20.2Zm-42.2.5a4.2,4.2,0,1,0-4.2,4.2A4.2,4.2,0,0,0,168.9,20.7ZM218.3,5.3A1.7,1.7,0,1,0,216.6,7,1.7,1.7,0,0,0,218.3,5.3Z"/><path class="d" d="M31.8,83.6c-14,2-21.2-13.3-17.7-20.3s12.1-4.2,19.5-4.2c9.7,0,16.4-7.6,20.4-2.2S49.1,81.2,31.8,83.6Zm.5-17.5a2.2,2.2,0,1,0-2.2,2.2A2.2,2.2,0,0,0,32.4,66.2Z"/><path class="c" d="M48.8,1c0,7.2,4.6,13.8-1,16.3-8.5,3.8-28-14.3-28-36.2,0-12,8.7-19,17.8-19,12.3,0,18,8.2,18,17.5S48.8-7.2,48.8,1ZM43.4-4.4a2.1,2.1,0,0,0-2.1-2.1,2.1,2.1,0,0,0-2.1,2.1,2.1,2.1,0,0,0,2.1,2.1A2.1,2.1,0,0,0,43.4-4.4Z"/><path class="d" d="M46.2,112c0,6.2-4.2,10.7-8.6,11.6s-8.3-1.3-13,1.2-7.1,11.1-16.8,11.1c-8,0-15.2-8-15.2-18.8,0-20.2,13.1-29.2,25.6-29.2C34.8,87.8,46.2,100.4,46.2,112ZM26.5,97.6a3.8,3.8,0,1,0-3.8,3.8A3.8,3.8,0,0,0,26.5,97.6Z"/><circle class="b" cx="43.1" cy="88.3" r="2.4"/><path class="d" d="M129.2,69.8c-3.2,4.7,1,10.7-1.4,15.2s-6.7,5-9.9,2.6-3.4-6.6-8.3-8.8-18,2.2-19.7-7.3c-.9-4.8,2.4-8.6,7.3-9.7s9.4-.2,15.4-3.1,11.2-9,22.1-12.1,16.1,1.6,16.6,5.9C152.4,61,134.2,62.4,129.2,69.8ZM127,62.4a2.2,2.2,0,1,0-2.2,2.2A2.2,2.2,0,0,0,127,62.4Z"/><path class="c" d="M156.2,109c0,17.2-14.5,25.5-27,22.8-10.3-2.2-12.8-17.3-16.7-26.2s-8.8-22.5-20.2-22.5S79.5,97.6,68.7,97.6,44.2,82,44.2,58C44.2,43.3,54,26.5,65,27.3S69.5,47,80.3,47s7.9-16.3,9.2-23.3c1.7-9,6.8-14.2,18.5-13.2,14.4,1.2,22.3,13.5,18.9,23.3-4,11.5-23.9,17.3-21.5,30.5,1.3,7.6,13,12,26,16.2C145.9,85.1,156.2,91.8,156.2,109Zm-45-75.8a3.3,3.3,0,1,0,3.3-3.3A3.3,3.3,0,0,0,111.2,33.1ZM64.5,58a1.7,1.7,0,1,0-1.7,1.7A1.7,1.7,0,0,0,64.5,58ZM82,68.8a3.8,3.8,0,1,0-3.8,3.8A3.8,3.8,0,0,0,82,68.8Zm19.9-15.6a1.6,1.6,0,1,0-1.6,1.6A1.6,1.6,0,0,0,101.9,53.2Zm29.6,54.7a3.2,3.2,0,1,0-3.2,3.2A3.2,3.2,0,0,0,131.5,107.9Z"/><path class="d" d="M123.5,24.5c-7.9,2.7-19.4-15.3-17.7-27,1.2-8.2,7.1-13.2,13.1-14.2,7.5-1.3,12.9,2.6,13.3,7.2.5,6.3-3.6,7.5-4.2,15S131.7,21.6,123.5,24.5ZM119.7-3a2.6,2.6,0,0,0-2.6-2.6A2.6,2.6,0,0,0,114.6-3a2.6,2.6,0,0,0,2.6,2.6A2.6,2.6,0,0,0,119.7-3Z"/><circle class="c" cx="16.8" cy="2" r="2.6"/><path class="c" d="M153.4,88.7c0-8.4-5.1-15.2-11.3-15.2s-11.3,6.8-11.3,15.2,5.1,12.4,11.3,12.4S153.4,97.1,153.4,88.7Z"/><path class="d" d="M84.6-5.7c.7,8.1,12.7,7,17.9,14.2C113,23,101.3,54.9,80.9,54.9c-11.7,0-24.2-9.7-24.2-29.2,0-15.8,10.2-21.5,8.2-42.2-1-10.8-12.5-20.3-12.5-34.7,0-5.9,3.6-13.4,11.6-13.4s10.8,6,10.8,12.9-5.4,15.7,1.4,19c5.2,2.6,13.2-4.8,19.5-6.7s12.4.2,14.7,8.5-3.3,14.7-11.6,16.7C92.5-12.9,84-12.2,84.6-5.7Zm-16-30.6a3.3,3.3,0,0,0-3.3-3.3,3.3,3.3,0,0,0-3.3,3.3A3.3,3.3,0,0,0,65.3-33,3.3,3.3,0,0,0,68.6-36.3Zm26,9.7a2.3,2.3,0,0,0,2.3-2.3,2.3,2.3,0,0,0-2.3-2.3,2.3,2.3,0,0,0-2.3,2.3A2.3,2.3,0,0,0,94.6-26.6Zm-20,59.7a3.3,3.3,0,1,0-3.3,3.3A3.3,3.3,0,0,0,74.6,33.1Z"/><path class="b" d="M66.9,20.2c-11.8-1.4-19.4.3-22.7,3.1s-5,5.4-2.2,11.9,1.5,14.7-5.5,15.9S25.6,46.3,25.3,38.8c-.2-5.2-1.9-8.3-5.5-7.6S15.1,37.1,16.1,43c1.4,8.1,5.5,11.8,6.2,20.2.5,6.1-2.9,13.7-12.5,15S-6,73.9-6.7,67.7s3.6-10.9,3.1-17.6-4-10.2-5.9-17.3c-2.8-10.5,1.2-19,7.8-22.7C13,2,21.1,13.8,34.3,11.7,45.2,10,57.6-6.5,67.3-7.9s13.8,4.7,15,14S77.6,21.4,66.9,20.2Zm-42.2.5a4.2,4.2,0,1,0-4.1,4.2A4.2,4.2,0,0,0,24.7,20.7ZM74.2,5.3A1.7,1.7,0,1,0,72.5,7,1.7,1.7,0,0,0,74.2,5.3Z"/><circle class="b" cx="128.9" cy="42.5" r="1.4"/><circle class="e" cx="133.5" cy="4.1" r="2.2"/><circle class="f" cx="51" cy="27.2" r="1.2"/><circle class="f" cx="47.2" cy="95.7" r="1.4"/><circle class="c" cx="132" cy="73.8" r="1.2"/><circle class="g" cx="92.5" cy="91.7" r="3.4"/><circle class="c" cx="98.8" cy="131.5" r="2.1"/><circle class="c" cx="60.5" cy="125.3" r="1.6"/><circle class="g" cx="133.1" cy="11.2" r="2.6"/><circle class="d" cx="123.2" cy="46.1" r="2.4"/><circle class="e" cx="25.1" cy="52.6" r="2.6"/><circle class="d" cx="21.4" cy="45.5" r="1.3"/><circle class="c" cx="85.4" cy="97.5" r="1.6"/><path class="d" d="M-14.9,69.8c-3.2,4.7,1,10.7-1.4,15.2s-6.7,5-9.9,2.6-3.4-6.6-8.3-8.8-18,2.2-19.7-7.3c-.9-4.8,2.4-8.6,7.3-9.7s9.4-.2,15.4-3.1,11.2-9,22.1-12.1S6.7,48.2,7.2,52.5C8.2,61-9.9,62.4-14.9,69.8Zm-2.2-7.4a2.2,2.2,0,0,0-2.2-2.2,2.2,2.2,0,0,0-2.2,2.2,2.2,2.2,0,0,0,2.2,2.2A2.2,2.2,0,0,0-17.2,62.4Z"/><path class="c" d="M12,109c0,17.2-14.5,25.5-27,22.8-10.3-2.2-12.8-17.3-16.7-26.2s-8.8-22.5-20.2-22.5S-64.6,97.6-75.5,97.6-100,82-100,58c0-14.7,9.8-31.5,20.8-30.7S-74.6,47-63.8,47s7.9-16.3,9.2-23.3c1.7-9,6.8-14.2,18.5-13.2C-21.7,11.7-13.8,24-17.3,33.8c-4,11.5-23.9,17.3-21.5,30.5,1.3,7.6,13,12,26,16.2C1.7,85.1,12,91.8,12,109Zm-45-75.8a3.3,3.3,0,0,0,3.3,3.3,3.3,3.3,0,0,0,3.3-3.3,3.3,3.3,0,0,0-3.3-3.3A3.3,3.3,0,0,0-32.9,33.1ZM-79.6,58a1.7,1.7,0,0,0-1.7-1.7A1.7,1.7,0,0,0-83.1,58a1.7,1.7,0,0,0,1.7,1.7A1.7,1.7,0,0,0-79.6,58Zm17.5,10.7a3.8,3.8,0,0,0-3.8-3.8,3.8,3.8,0,0,0-3.8,3.8,3.8,3.8,0,0,0,3.8,3.8A3.8,3.8,0,0,0-62.1,68.8Zm19.9-15.6a1.6,1.6,0,0,0-1.6-1.6,1.6,1.6,0,0,0-1.6,1.6,1.6,1.6,0,0,0,1.6,1.6A1.6,1.6,0,0,0-42.3,53.2Zm29.6,54.7a3.2,3.2,0,0,0-3.2-3.2,3.2,3.2,0,0,0-3.2,3.2,3.2,3.2,0,0,0,3.2,3.2A3.2,3.2,0,0,0-12.6,107.9Z"/><path class="c" d="M9.3,88.7c0-8.4-5.1-15.2-11.3-15.2s-11.3,6.8-11.3,15.2,5.1,12.4,11.3,12.4S9.3,97.1,9.3,88.7Z"/></pattern></defs><title>orange</title><rect class="h" x="0.1" y="0.1" width="233.8" height="397.75" rx="15.5" ry="15.5"/><path d="M339.4,34.3a15.3,15.3,0,0,1,15.3,15.3V416.4a15.3,15.3,0,0,1-15.3,15.3H136.6a15.3,15.3,0,0,1-15.3-15.3V49.6a15.3,15.3,0,0,1,15.3-15.3H339.4m0-.2H136.6A15.6,15.6,0,0,0,121,49.6V416.4A15.6,15.6,0,0,0,136.6,432H339.4A15.6,15.6,0,0,0,355,416.4V49.6A15.6,15.6,0,0,0,339.4,34Z" transform="translate(-121 -34)"/><rect class="i" y="65" width="234" height="134"/><circle class="j" cx="117" cy="180" r="65"/><rect class="k" x="0.1" y="199.1" width="233.8" height="149.75"/><path d="M354.8,233.3V382.8H121.3V233.3H354.8m.3-.2H121V383H355V233Z" transform="translate(-121 -34)"/><text class="l" transform="translate(31.5 231.3)">ORGANIC</text><text class="m" transform="translate(42.2 249.3)">&amp;</text><text class="n" transform="translate(77.5 252.3)">FAIRLY TRADED</text><path class="o" d="M323.5,297.5h0Z" transform="translate(-121 -34)"/><path class="o" d="M321.8,297.5c-.3,0-.6.2-.4.3l.7-.2h-.3C321.7,297.6,321.8,297.5,321.8,297.5Z" transform="translate(-121 -34)"/><path class="o" d="M297.3,296.1h0Z" transform="translate(-121 -34)"/><path class="o" d="M282.1,295.6a.2.2,0,0,0,.2-.2C282.1,295.4,282.1,295.5,282.1,295.6Z" transform="translate(-121 -34)"/><path class="o" d="M279.5,294.5h0Z" transform="translate(-121 -34)"/><path class="o" d="M297.3,296.1l-.4-.3C296.8,296.1,297.1,296,297.3,296.1Z" transform="translate(-121 -34)"/><path class="o" d="M318.4,298.2h0Z" transform="translate(-121 -34)"/><path class="o" d="M304,295.5h.1v-.4Z" transform="translate(-121 -34)"/><path class="o" d="M309.1,295.9c-.1,0-.2.6-.2.8s.2-.4.3-.4A1.8,1.8,0,0,0,309.1,295.9Z" transform="translate(-121 -34)"/><path class="o" d="M317.3,297.2h0Z" transform="translate(-121 -34)"/><path class="o" d="M300.3,295.1v-.3A1.1,1.1,0,0,0,300.3,295.1Z" transform="translate(-121 -34)"/><path class="o" d="M156.5,298.8a.3.3,0,0,0,0,0S156.4,298.8,156.5,298.8Z" transform="translate(-121 -34)"/><path class="o" d="M150.5,297.5h0Z" transform="translate(-121 -34)"/><path class="o" d="M274.7,293.4h0C274.9,293.3,274.8,293.3,274.7,293.4Z" transform="translate(-121 -34)"/><path class="o" d="M231.1,294c.5.8-.8,1-.1,1.8S231.7,294.5,231.1,294Z" transform="translate(-121 -34)"/><path class="o" d="M318.3,298.2h0Z" transform="translate(-121 -34)"/><path class="o" d="M231.1,295.8h0Z" transform="translate(-121 -34)"/><path class="o" d="M263.8,293.9v0Z" transform="translate(-121 -34)"/><path class="o" d="M271.9,295.1h0Z" transform="translate(-121 -34)"/><path class="o" d="M259.6,295.1c-.1-.1-.1-.2-.3-.1h0C259.4,295,259.4,295,259.6,295.1Z" transform="translate(-121 -34)"/><path class="o" d="M255.1,295.1v.2h-.1Z" transform="translate(-121 -34)"/><path class="o" d="M169.9,300.8a3.7,3.7,0,0,1-.2-.7C169.7,300.6,169.1,300.7,169.9,300.8Z" transform="translate(-121 -34)"/><path class="o" d="M318.4,298.1h0S318.5,298.1,318.4,298.1Z" transform="translate(-121 -34)"/><path class="o" d="M259.4,301.7h0Z" transform="translate(-121 -34)"/><path class="o" d="M201.5,300.9h0Z" transform="translate(-121 -34)"/><path class="o" d="M256.6,301.7a1.4,1.4,0,0,0-.4-.6v.2Z" transform="translate(-121 -34)"/><path class="o" d="M169.6,300h0Z" transform="translate(-121 -34)"/><path class="o" d="M165,300.9c.7.2.3-.7.5-1.2s.4.7.6,1.1.9-.9,1.2-.8.1.2,0,.4,1.6.2,2.2-.7v.3a5.9,5.9,0,0,1-.1-1.4c.3,0,.6-.6.7.1s-.2.2-.3.4l.3-.3c.3,1-.4.3-.4,1s1.3-1,1.8-.7-1.1.2-.5,1.2l-.7-.5c.6,1.6-.4-.2.1,1.5s1.1-.3,2,.1-.1-.9.1-1.4,1.1,2.6,2.1,1.2.4-2,1.1-1.3l-.2,1.2c.9.1.5-1.7,1.5-.9s-.7.4-.6.5.4-.7.9-.7v1c1-.2,2.1-.9,3.2-1.1s-.2.6,0,.9,2.9.1,4.3.7l.5-.9c.1,0,.2.4.1.6s0-.6.3-.9.4.5.2.8,2.6-1.6,3.6-.7l-.2.3c.7.4.8-1.8,1.5-1v.2c1.6.4,3.4-.4,4.7.9.2-1.3,1.6.6,1.7-1.2.9.9.7,1.2,2,1.8s.5-1.1.9-1.3v.9l.6-1,.3,1.1.4-.2a.8.8,0,0,1-.3-.7c.6-.4,1.5.6,1.6,1.1l1.5-.8c0,.4-.3.5-.5.7s.1,1,.9.1.1-.6.1-.7a1.5,1.5,0,0,0,1.8.3v.6c1.1.2,2.3-.3,3.6-.3-.4-.3-.3-1.4,0-1.5v1c.2-.6-.4-.4.1-1.1s.3,1.1,0,1.4l.6-.3c0,.3-.1.4-.1.8s1,1,1.3-.1v.3c1.2,0,1.8-.3,2.8-.4s.4-.7.7-1.3,1.6.9,2.5.9.2-.7.5-1.2.9.7.5,1.2a6.7,6.7,0,0,0,2.7-.8c-.1-.3-.3-.5-.2-.7s.6.3.5.7h-.1c1.5-1.2,3.5,2.2,4.7.6h-.1l1.3-.8c.6.1-.3.6.1,1.1,1.4-1.3,2.1.2,3.3-.7.9,2.3,3.1-.2,4.2,1.3v-.5c.3-.5.4.3.6.4s-.3-.5-.1-.8c2.6-.6,5.3.8,7.9,1.3,1,.1.5-2.8,1.8-1.5l-.3,1c1.9-1.2,4,0,5.9-1-.1.2-.1.5-.3.5s1.5,0,1.5-.6.1.5.3.8,1-.9,1.2-.2-.1.2-.2.3,1.2.1,1-.7,1.4-.4,1.9.1,1.2.4,1.3-.9c-.1,1.4,1.2,1.1,1.7.5s.4.4.2,1,1-.3.9-1c.9,1.6,1.9-1.3,2.4.8a20.8,20.8,0,0,1,4.3-1.5c0,1.4-1.5.1-1.5,1.6,1.3-.6,2.1-1.7,3.3-1.4s-.2.6-.3.8,2.5.1,3.7-.6a.6.6,0,0,1-.2.4c.2,0,.5.2.5-.4l-.2.2c-.4-.9.9-1.9.9-2.3-.4,1.8,1.1.4.5,2.7a.9.9,0,0,0,.3-.8c.2.1.3.4.1.8s.5-1,1.3-1-.2.4-.2.8.8-1.2,1.4-.9,0,.4-.2.4,1.8-1.5,3-1c-.3,1.3.4.4.5,1.5l.6-.3-.3-.5c.6,0,1-.8,1.5-.4l-.4.5,1-.2-.6-.4c.6-.6-.1-1.4.7-1.1s.6,0,.8.7h0c.3-.4.6-.7,1-.5s-.1,1.2,0,1.5,1.3-.3,1.6-1.3a2.1,2.1,0,0,0-.1.9l.2-.8c.3.2.3.4.3.8s-.2-1.4.7-.8,0,.2-.2.3,1.8-.5,2.6-.1-.7.3-.5,1.2,2.5-1.4,3.7-1.1h-.2c.2-1.6.9.8,1.5,0a1.3,1.3,0,0,0-.2.7c.8.3,1.7-.4,2.9-.9l-.2.4c.5.4,1.3.2,1.8.4s.4-.3.3-.9c1.6,2.4,3-1.2,4.4.6-.2,0-.4.4-.3.4l1.2-.5c-.1-.6-.2-.4-.4-.9a1,1,0,0,1,.8-.7c-.5.4,0,1,.2,1.3s0-.4,0-.6.1-1.2,1-.5v.3c.3-.2.6-.6,1-.5s-.3.3-.4.9,1-1.2,1.4-.6l-.7.4c.5.7.5.5.9.6h0l.8.2-.2-.2c.6-1.5,1.2-.4,2.1-1.3-.8.9-.1.5-.2,1.1s.5.3.4.5.6.3,1.2-.4.4,0,.3.4-.1-.3-.1-.5.8-.2,1.3-.1a2.1,2.1,0,0,0,1.6-.3c1-.3,1.1-.7,2-.9s-.2.4-.2.4a2.4,2.4,0,0,0,1.3-.1c-.1.1,0,.1.1.2s.2-.3.7-.2l-.4.3,1.3-.4c.1.1-.3.2-.4.3l1.5-.3h-.3c.2,0,.1.1,0,.1s-.6,0-.6-.1h.3c-.3-.3-1.3.1-1.9.1l.3-.3-.7.3c-.1-.1-.2-.3.1-.3s-.4.1-.8-.1,0-.1,0-.1h-.5c.1-.1-.1-.3.2-.2s-1.3.3-1.6-.1h.1c-1.1.1-.1.4-.9.8l-.6-1.1v.4c-.1,0-.3-.1-.3-.2s.1.2-.2.5-1.5.2-1.7-.6.5.3-.1.6-.7.2-1.2-.3.6-.2.1-.7-1-.3-1.4-.1-.9.3-1.7.5-1.4-.5-2-.9v-.2c-.1.9-.8.7-1.3.9s.1-.8.4-1.1h-.5a.8.8,0,0,1-.6.6v-.8c-.6,0-1.3.8-2.1.2s.6,2.2-.2,2.7-.1-1.1.2-1.3-.3.3-.4.2l.3-.7c-.4-.3-.2.6-.5.5s-.2-.4-.2-.9.3.3.4,0a1.5,1.5,0,0,1-.9-.9c0,.3,0,.8-.2.9s-.2-.7-.6-1-.6,0-.6.9-.2-.4-.3-.7-1.5.1-1.2,1.1h0c-1.1.9-2.2-.5-3.3-.1v-.3c-.6.3-1.4.2-1.9.8s-.4-.5-.4-.9-.5.6-1.2.1-.2-.5.5-.4-.8-.7-1.4.1c.2-.8-.5-1-.8-.7l.4.5a1.7,1.7,0,0,1-.9,0l.2-1c-1.3-1.2-2.3,2.1-3.3,0-.3.7.7.5.4,1.3s-1.2-1.6-1.4-1.6-.8,1.5-1.6,1.1.2,1.3-.4,1.6-.7-1.5-.4-1.8.2.1.2.2.4-.3.2-.7v.4c-.3-.4-1.1-.3-.9-.9s-.2.6.1.8-1.2,0-2-.4.2.6.1.6-.5.7-1.3.8.2-1.3-.6-.8-.1-.9.1-1.2-1.3-.5-1.7-.6l.4-.3a.8.8,0,0,1-.6.2l.2.7c-.2-.1-.4-.1-.4-.4s.2,1.2-.3,1.8-.9.4-1-.6-.1-.9.7-1.1a.5.5,0,0,1-.6,0,.2.2,0,0,1,.1-.2c-.9-.8-.4,1.1-1.3,1s-.2-1-.4-.9.2.9-.2,1.3-.6.3-.9.3l.4.2c-.1.5-.4.5-.8.6s.4-.3.2-.5-1-1-1.7-.3,0-1-.3-1.2-.8-.7-1.5-.2.3.5-.3,1.2l1.2-.5-.8,1c.4,0,.8-.4,1-.3s-.3.4-.2,1c-.5-1.1-1,.6-1.6-.1v-1.8c-.9-.8-1.6.9-2.7.5l.4.3c-.2.7-.7.1-1.1.4a2,2,0,0,0-.4-1.2c0,.4-.8,0-.9,1.1l-.5-.8c-.9-.3-1.1,1.7-1.9,1.5s-.1-1.1.5-1.5-.6-.1-.6.3-.8.8-1.1.2-.2.9-.5.8a.7.7,0,0,1,0-.3c0,.3-.5.4-.2,1.1-.9-1.8-2.6.1-3.3-1.5l-2,.4c0-.2,0-.3.1-.2s-.5,1.7-1.4,1.1.5-.5.2-.9c-.1-1.9-1.1.3-1.7-.9h.2c-.5-.7-1.2.7-1.9.6a.8.8,0,0,0,0-.3,3.7,3.7,0,0,1-2.3,1.6c.2-.8.3-.4.2-1.2s.1,1.2-.6,1.5a3.4,3.4,0,0,1-.8-1.6h.6c-.3-1.1-.8,0-1.1-.1v-.5c-1,.2-1,1.3-2,1.2v.4c-.6,1.2-.5-.7-1,.2l-.2-1.2a8.8,8.8,0,0,1-2,1.4,6.5,6.5,0,0,1,1.6-1.8c-.4,0-1.3.1-1.5.7s.3-.4.5-.2-1.1,1.4-1.8,1.4c.1-2.3-1.9-.6-2.5-2.4-1.3.8-2.6-.4-4.1-.2.5,1.8-.4.1-.4,1.9-.4.1-.5.1-.5,0l-1.1-1.1c-.3-.5.3-.4.3-.8s-.3-.8-.8-1.3-.3.9-.7.7l.6.8c-1.1,1-.9-1.5-2-.6l.3-.6c-.6.3-2.1,0-2.6,1.5-.1-.2-.2-.7,0-.8-1.3-.2-3,1.6-4,.7v-.4c-.2.1-.4.8-.7.4s.1-.4,0-.5-.7.8-1,.5l.3-.5c-1.3-.6-2,1.2-3.1,1.5a2.1,2.1,0,0,0-1.5-2v-.2c-1.5-.2-2.6,1.1-4,1.6-.9-1.4-3-.6-4.4-1.4.2.2,0,1-.3,1.2s-.9.9-.9-.3h.1c-.2-1.2-.9-.9-1.5-.9V295c-1.4-2.3-3.6.8-4.4-1.2-.3.4-.7.4-1.1.8v-.8a5.1,5.1,0,0,0-2.5-.1l.2-.6c-.6-.1-.8,2.4-1.4,2.5l-.2-1.3c-1.1,0-2.3-1.1-3.4.1s.1-.6.2-.6-2.1-.9-1.9.9c0-1.1-1.2-.1-1.8.4v-.8c-.5,1.1-.5,1.4-1.2,1.7s-.1-.7.1-.5-.4.8-1.1.3l.3-.5c-.6-.1-.5.2-.9.8s-1.1-.2-1.2-1-.4,1.1-.7.9a.7.7,0,0,1,.1-.5c-1-.6-1.4,1-2.1.2a1,1,0,0,0-.1-.5h1.3c0-.8-.6-.9-.1-2-.5.6-1.4,1.8-2,1.5v-.3h.1c-.1-.1-.3,0-.4.1l-.5-.2c-.1-.6-.7-.3-1-.4s-.4.7,0,1.4h1.2c-.2.4-.5.8-.8.3l-.4,1.4c-.4-1.2-1.2-1.8-1.4-2.5s-2.2.3-2.8,1.9-.3-.5-.4-.7.3-.1.4-.4-1.6.1-1.7,1.3c-.7-.5.4-1.1-.6-.8V295c-.9-.8-1.7,0-2.4.7s-1.6,1.1-2.6.3.2.1.2.3a8.5,8.5,0,0,0-3.6.2,8.6,8.6,0,0,1-3.5,0c-.7-.1-.7.3-1.1.5v-.4l-.7.5a2.2,2.2,0,0,1-1.4-.1,2.2,2.2,0,0,0-1.5.1h.2c-.4,0-1.4.2-1.3,0h-.3l-1.1.2c-.8,0,.1-.3-1.1-.1l-1.1.2h2.8c.1.1-.3.1.2.3s-.3-.2.2-.2.2.3.6.2,0,.1-.2.1.9.1,1.1,0,1.2.1,1.2.5l1-.2c-.6.5,1.2.2,1.1.9s1.6,0,2.4-.3h-.2c.4.1.6.4.8.6s.7-.7,1.1-1.1-.3.8-.2,1.5.9-.4.8-1,.4.3.6.9c.1-1,.4-.1.7-.7s.2,1,.8.8S165,300.9,165,300.9Zm15.6-1.2h0Zm1.3,0h-.6c0-.3,0-.6.1-.6S181.7,299.5,181.9,299.7Zm-2.8-5.8c.2-.1.3,0,.3.2h-.4Z" transform="translate(-121 -34)"/><path class="o" d="M178.8,295h-.1V295Z" transform="translate(-121 -34)"/><path class="o" d="M297.5,296.2h0Z" transform="translate(-121 -34)"/><polygon class="o" points="79 267.3 79 267.1 78.9 267.3 79 267.3"/><path class="o" d="M304.7,299v0Z" transform="translate(-121 -34)"/><path class="o" d="M307.8,298.9l.4.2Z" transform="translate(-121 -34)"/><path class="o" d="M310.2,299v-.2h0Z" transform="translate(-121 -34)"/><path class="o" d="M272.1,300.7h0Z" transform="translate(-121 -34)"/><path class="o" d="M283.4,298.8l-.4.4C283.3,299.2,283.4,299.2,283.4,298.8Z" transform="translate(-121 -34)"/><path class="o" d="M259.5,301.8h0Z" transform="translate(-121 -34)"/><path class="o" d="M282.5,299.2a.4.4,0,0,0,.5,0C282.9,299.1,282.7,299,282.5,299.2Z" transform="translate(-121 -34)"/><path class="o" d="M320.6,297.9h0Z" transform="translate(-121 -34)"/><path class="o" d="M320.7,297.9h0Z" transform="translate(-121 -34)"/><path class="o" d="M321.1,297.8h0Z" transform="translate(-121 -34)"/><path class="o" d="M317.4,298.2h0Z" transform="translate(-121 -34)"/><path class="o" d="M316.4,298.3a2.3,2.3,0,0,0,.9,0h0C317.2,298.5,316.6,298.1,316.4,298.3Z" transform="translate(-121 -34)"/><path class="o" d="M312.4,296.7l.8.2c-.1-.2-.3-.4,0-.4S313.5,296.8,312.4,296.7Z" transform="translate(-121 -34)"/><path class="o" d="M309.9,296.2c.4-.1,0-.3,0-.4S309.6,296,309.9,296.2Z" transform="translate(-121 -34)"/><path class="o" d="M291.8,295.6v-.8C291.5,294.9,291.9,295.1,291.8,295.6Z" transform="translate(-121 -34)"/><polygon class="o" points="167.4 265.5 167.7 266 167.8 265.3 167.4 265.5"/><polygon class="o" points="165.3 260.1 165.5 260 164.9 260.2 165.3 260.1"/><path class="o" d="M255.9,294.3v.9C256.3,295.1,256.3,294.1,255.9,294.3Z" transform="translate(-121 -34)"/><path class="o" d="M242.8,295.3c-.1-.5-.5-.8-.7-.3S242.7,295.4,242.8,295.3Z" transform="translate(-121 -34)"/><polygon class="o" points="82.5 259.8 82.7 259.5 82.2 259.7 82.5 259.8"/><text class="p" transform="translate(30.2 36.6)">CHO<tspan class="q" x="54.7" y="0">C</tspan><tspan x="71.2" y="0">OHOLI</tspan><tspan class="r" x="151.1" y="0">C</tspan><tspan x="167.7" y="0">S</tspan><tspan class="s"><tspan x="51.9" y="18">COMPANY</tspan></tspan></text><line class="t" x1="29.5" y1="48.5" x2="74" y2="49"/><line class="t" x1="165.5" y1="48.5" x2="210" y2="49"/><circle class="j" cx="117" cy="346" r="37"/><text class="u" transform="translate(93.6 343)">cacao<tspan x="5.7" y="16">65%</tspan></text><text class="v" transform="translate(71.3 283.9)">dark chocolate</text><text class="w" transform="translate(82.3 302)">O<tspan class="x" x="11.8" y="0">R</tspan><tspan class="y" x="23" y="0">A</tspan><tspan class="x" x="34" y="0">N</tspan><tspan x="44.5" y="0">GE</tspan></text></svg>